<?xml version="1.0" encoding="UTF-8"?><svg id="Layer_2" xmlns="http://www.w3.org/2000/svg" viewBox="0 0 3155.36 1087.62"><defs><style>.cls-1{fill:none;stroke:#8fd68f;stroke-linecap:round;stroke-linejoin:round;stroke-width:56.87px;}.cls-2{fill:#fff;}.cls-3{fill:#8fd68f;}</style></defs><g id="Layer_1-2"><g><g><path class="cls-2" d="M1487.4,401.33l140.08-144.42h72.75l-163.42,163.97,164.51,198.17h-73.84l-129.22-160.71-10.85,10.87v149.85h-55.38V256.9h55.38v144.42Z"/><path class="cls-2" d="M1950.55,505.03c0,70.03-53.21,121.07-122.16,121.07s-122.16-51.03-122.16-121.07,53.21-120.54,122.16-120.54,122.16,49.96,122.16,120.54Zm-54.29,.54c0-52.12-34.2-73.29-67.87-73.29s-67.87,21.17-67.87,73.29c0,43.98,26.06,72.75,67.87,72.75s67.87-28.78,67.87-72.75Z"/><path class="cls-2" d="M2238.32,505.03c0,70.03-53.21,121.07-122.16,121.07s-122.16-51.03-122.16-121.07,53.21-120.54,122.16-120.54,122.16,49.96,122.16,120.54Zm-54.29,.54c0-52.12-34.2-73.29-67.87-73.29s-67.87,21.17-67.87,73.29c0,43.98,26.06,72.75,67.87,72.75s67.87-28.78,67.87-72.75Z"/><path class="cls-2" d="M2393.62,450.74c-5.43-8.69-15.75-19.55-32.58-19.55-7.6,0-13.03,2.71-16.29,5.97-2.71,2.71-4.88,7.06-4.88,11.94,0,5.97,2.72,9.78,7.6,13.04,3.26,2.16,6.51,3.25,17.92,9.23l27.15,13.57c11.94,5.97,23.34,11.95,32.03,21.18,12.49,12.48,16.83,26.59,16.83,42.34,0,20.63-7.6,38.55-20.09,52.12-17.92,19.55-40.17,25.52-64.06,25.52-14.66,0-33.12-2.17-49.41-14.66-13.03-9.77-23.89-25.52-29.32-41.8l43.43-20.62c2.72,7.6,7.6,17.37,12.48,21.71,3.26,3.26,10.86,8.69,23.35,8.69,8.14,0,16.83-2.72,21.71-7.61,4.35-4.35,7.6-11.4,7.6-17.91s-2.17-11.95-7.06-17.37c-6.51-6.52-14.11-10.32-22.8-14.11l-19.55-9.23c-10.32-4.89-22.8-10.87-31.49-19.55-11.95-11.4-16.29-23.89-16.29-38.56,0-18.45,7.06-36.37,19-48.86,10.32-10.85,27.69-21.72,55.92-21.72,16.29,0,29.32,3.26,42.35,11.95,7.6,4.88,17.92,13.58,26.06,28.23l-39.63,26.07Z"/><path class="cls-2" d="M1619.33,892.16h149.31v2.72c0,61.89-18.46,112.39-53.75,146.59-37.46,36.38-81.98,46.15-123.24,46.15-52.66,0-90.13-15.2-123.25-49.41-35.29-36.37-53.75-84.7-53.75-136.82,0-56.46,22.8-105.33,52.66-135.18,30.94-31.5,80.36-54.29,136.27-54.29,32.57,0,66.24,7.06,94.47,22.8,29.86,16.84,48.32,38.01,58.64,54.29l-43.98,30.95c-10.86-15.2-27.15-31.49-44.52-41.27-20.09-11.94-41.8-15.74-64.07-15.74-47.23,0-77.64,19.55-95.56,37.46-23.89,23.89-38.55,62.44-38.55,101.53,0,36.37,13.57,72.75,37.46,98.27,24.97,26.6,55.92,36.37,90.67,36.37,31.49,0,57.55-9.23,80.9-32.04,20.08-19.54,28.23-40.72,30.4-61.35h-90.13v-51.03Z"/><path class="cls-2" d="M1995.6,851.99h53.21v228.57h-53.21v-23.89c-23.34,27.15-52.12,30.95-68.41,30.95-70.58,0-110.76-58.64-110.76-121.62,0-74.38,51.04-119.98,111.31-119.98,16.83,0,46.15,4.34,67.87,32.57v-26.6Zm-124.88,115.1c0,39.63,24.97,72.75,63.52,72.75,33.66,0,64.61-24.43,64.61-72.22s-30.95-73.83-64.61-73.83c-38.55,0-63.52,32.57-63.52,73.29Z"/><path class="cls-2" d="M2216.05,912.26c-5.43-8.69-15.75-19.55-32.58-19.55-7.6,0-13.03,2.71-16.29,5.97-2.71,2.71-4.88,7.06-4.88,11.94,0,5.97,2.72,9.78,7.6,13.04,3.26,2.16,6.51,3.25,17.92,9.22l27.15,13.58c11.94,5.97,23.34,11.95,32.03,21.17,12.49,12.49,16.83,26.6,16.83,42.35,0,20.63-7.6,38.55-20.09,52.12-17.92,19.55-40.17,25.52-64.06,25.52-14.66,0-33.12-2.17-49.41-14.66-13.03-9.77-23.89-25.52-29.32-41.8l43.43-20.62c2.72,7.6,7.6,17.37,12.48,21.71,3.26,3.26,10.86,8.69,23.35,8.69,8.14,0,16.83-2.72,21.71-7.61,4.35-4.35,7.6-11.4,7.6-17.91s-2.17-11.95-7.06-17.37c-6.51-6.52-14.11-10.32-22.8-14.11l-19.55-9.23c-10.32-4.89-22.8-10.87-31.49-19.55-11.95-11.4-16.29-23.89-16.29-38.56,0-18.46,7.06-36.37,19-48.86,10.32-10.85,27.69-21.71,55.92-21.71,16.29,0,29.32,3.25,42.35,11.94,7.6,4.88,17.92,13.58,26.06,28.23l-39.63,26.07Z"/><path class="cls-2" d="M2364.82,684.76v395.8h-53.21v-395.8h53.21Z"/><path class="cls-2" d="M2664.51,966.55c0,70.03-53.2,121.07-122.16,121.07s-122.15-51.03-122.15-121.07,53.2-120.53,122.15-120.53,122.16,49.95,122.16,120.53Zm-54.29,.54c0-52.12-34.2-73.29-67.87-73.29s-67.87,21.17-67.87,73.29c0,43.98,26.06,72.75,67.87,72.75s67.87-28.78,67.87-72.75Z"/><path class="cls-2" d="M2952.29,966.55c0,70.03-53.21,121.07-122.17,121.07s-122.15-51.03-122.15-121.07,53.2-120.53,122.15-120.53,122.17,49.95,122.17,120.53Zm-54.29,.54c0-52.12-34.21-73.29-67.87-73.29s-67.87,21.17-67.87,73.29c0,43.98,26.06,72.75,67.87,72.75s67.87-28.78,67.87-72.75Z"/><path class="cls-2" d="M3107.58,912.26c-5.42-8.69-15.74-19.55-32.57-19.55-7.6,0-13.03,2.71-16.29,5.97-2.71,2.71-4.88,7.06-4.88,11.94,0,5.97,2.71,9.78,7.6,13.04,3.26,2.16,6.52,3.25,17.92,9.22l27.14,13.58c11.95,5.97,23.35,11.95,32.04,21.17,12.49,12.49,16.84,26.6,16.84,42.35,0,20.63-7.61,38.55-20.1,52.12-17.91,19.55-40.17,25.52-64.06,25.52-14.66,0-33.12-2.17-49.41-14.66-13.03-9.77-23.88-25.52-29.32-41.8l43.43-20.62c2.72,7.6,7.61,17.37,12.49,21.71,3.26,3.26,10.87,8.69,23.34,8.69,8.14,0,16.84-2.72,21.72-7.61,4.35-4.35,7.61-11.4,7.61-17.91s-2.17-11.95-7.06-17.37c-6.52-6.52-14.12-10.32-22.81-14.11l-19.55-9.23c-10.32-4.89-22.81-10.87-31.49-19.55-11.94-11.4-16.29-23.89-16.29-38.56,0-18.46,7.06-36.37,19-48.86,10.32-10.85,27.69-21.71,55.92-21.71,16.3,0,29.33,3.25,42.35,11.94,7.61,4.88,17.92,13.58,26.07,28.23l-39.64,26.07Z"/></g><path class="cls-1" d="M1029.34,487.3V1013.35c0,25.17-20.42,45.48-45.58,45.48H73.91c-25.06,0-45.48-20.31-45.48-45.48V487.3c.22-10.8,4.1-21.17,11.02-29.38,1.19-1.51,2.38-2.81,3.78-4.1l26.57-24.2h.11l158.79-144.42,41.48-37.59L498.1,40.32c1.51-1.4,3.13-2.7,4.75-3.78,15.55-10.8,36.4-10.8,51.96,0,1.62,1.08,3.24,2.38,4.75,3.78l228.03,207.18,41.37,37.7,163.65,148.63,21.93,19.98c6.59,6.37,11.34,14.37,13.39,23.22,.86,3.35,1.3,6.81,1.4,10.26Z"/><rect class="cls-3" x="6.62" y="514.64" width="1044.47" height="55.88" rx="24.73" ry="24.73" transform="translate(1071.44 13.72) rotate(90)"/><rect class="cls-3" x="409.15" y="660.45" width="701.08" height="55.88" rx="21.38" ry="21.38" transform="translate(1783.64 637.97) rotate(135)"/><rect class="cls-3" x="-52.51" y="660.45" width="701.08" height="55.88" rx="21.38" ry="21.38" transform="translate(574.05 -9.11) rotate(45)"/><path class="cls-3" d="M828.96,285.2l-272.21,272.21-1.4,1.4c-7.24,7.24-18.26,8.21-26.46,2.92-1.3-.86-2.59-1.84-3.67-2.92l-9.29-9.29c-8.43-8.43-8.43-21.93,0-30.25l12.96-12.96,27.87-27.87,230.84-230.95,41.37,37.7Z"/><path class="cls-3" d="M270.18,247.61l230.73,230.73,27.98,27.98,12.96,12.96c8.32,8.32,8.32,21.82,0,30.25l-9.29,9.29c-1.08,1.08-2.38,2.05-3.67,2.92-8.21,5.29-19.34,4.32-26.57-2.92l-1.4-1.4L228.7,285.2l41.48-37.59Z"/></g></g></svg>